# xmcd CD database file
#
# Track frame offsets:
#	150
#	11502
#	22807
#	39692
#	51210
#	63519
#	76792
#	87824
#	101197
#	115590
#	126159
#	138215
#
# Disc length: 2028 seconds
#
# Revision: 0
# Processed by: cddbd v1.5.2PL0 Copyright (c) Steve Scherf et al.
# Submitted via: CDex 1.70beta3
#
DISCID=8f07ea0c
DTITLE=Teddy Wilson - And Then They Wrote
DYEAR=1959
DGENRE=Jazz
TTITLE0=King Porter Stomp
TTITLE1=If I Could Be With You One Hour Tonight
TTITLE2=Honeysuckle Rose
TTITLE3=Sophisticated Lady
TTITLE4=Rosetta
TTITLE5=One O'Clock Jump
TTITLE6=Sunny Morning
TTITLE7='Round Midnight
TTITLE8=Artistry In Rhythm
TTITLE9=Lullaby Of Birdland
TTITLE10=Misty
TTITLE11=The Duke
EXTD=YEAR: 1959
EXTT0=
EXTT1=
EXTT2=
EXTT3=
EXTT4=
EXTT5=
EXTT6=
EXTT7=
EXTT8=
EXTT9=
EXTT10=
EXTT11=
PLAYORDER=
